<?xml version="1.0" encoding="UTF-8" standalone="no" ?>
<!DOCTYPE svg PUBLIC "-//W3C//DTD SVG 1.1//EN" "http://www.w3.org/Graphics/SVG/1.1/DTD/svg11.dtd">
<svg xmlns="http://www.w3.org/2000/svg" xmlns:xlink="http://www.w3.org/1999/xlink" version="1.1" width="1200" height="628" viewBox="0 0 1200 628" xml:space="preserve">
<desc>Created with Fabric.js 5.2.4</desc>
<defs>
</defs>
<rect x="0" y="0" width="100%" height="100%" fill="transparent"></rect>
<g transform="matrix(0 0 0 0 0 0)" id="d52e2827-cbaf-4cd6-b3d4-06e9b1271403"  >
</g>
<g transform="matrix(1 0 0 1 600 314)" id="422de018-c09b-40cb-82ec-5c651e52b449"  >
<rect style="stroke: none; strokeWidth: 1; stroke-dasharray: none; strokeLinecap: butt; stroke-dashoffset: 0; strokeLinejoin: miter; stroke-miterlimit: 4; fill: rgb(255,255,255); fill-rule: nonzero; opacity: 1; visibility: hidden;" vector-effect="non-scaling-stroke"  x="-600" y="-314" rx="0" ry="0" width="1200" height="628" />
</g>
<g transform="matrix(0.45 0 0 0.46 600 314)"  >
<g style="" vector-effect="non-scaling-stroke"   >
		<g transform="matrix(0.13 0 0 -0.13 140.98 -12.3)"  >
<path style="stroke: none; strokeWidth: 1; stroke-dasharray: none; strokeLinecap: butt; stroke-dashoffset: 0; strokeLinejoin: miter; stroke-miterlimit: 4; fill: rgb(0,128,128); fill-rule: nonzero; opacity: 1;" vector-effect="non-scaling-stroke"  transform=" translate(-33515, -14760)" d="M 32010 16545 L 32010 15990 L 32483 15988 L 32955 15985 L 32958 14203 L 32960 12420 L 33520 12420 L 34080 12420 L 34080 14205 L 34080 15990 L 34550 15990 L 35020 15990 L 35020 16545 L 35020 17100 L 33515 17100 L 32010 17100 L 32010 16545 z" strokeLinecap="round" />
</g>
		<g transform="matrix(0.13 0 0 -0.13 1171.47 -12.3)"  >
<path style="stroke: none; strokeWidth: 1; stroke-dasharray: none; strokeLinecap: butt; stroke-dashoffset: 0; strokeLinejoin: miter; stroke-miterlimit: 4; fill: rgb(0,128,128); fill-rule: nonzero; opacity: 1;" vector-effect="non-scaling-stroke"  transform=" translate(-41220, -14760)" d="M 40660 14760 L 40660 12420 L 41220 12420 L 41780 12420 L 41780 14760 L 41780 17100 L 41220 17100 L 40660 17100 L 40660 14760 z" strokeLinecap="round" />
</g>
		<g transform="matrix(0.13 0 0 -0.13 451.78 110.92)"  >
<path style="stroke: none; strokeWidth: 1; stroke-dasharray: none; strokeLinecap: butt; stroke-dashoffset: 0; strokeLinejoin: miter; stroke-miterlimit: 4; fill: rgb(0,128,128); fill-rule: nonzero; opacity: 1;" vector-effect="non-scaling-stroke"  transform=" translate(-35842.98, -13858.4)" d="M 35760 15294 C 35518 15263 35284 15181 35122 15071 C 35089 15049 35058 15030 35055 15030 C 35040 15030 34898 14906 34836 14839 C 34677 14668 34564 14460 34505 14234 C 34469 14097 34459 14017 34459 13860 C 34458 13694 34478 13567 34532 13406 C 34676 12970 34985 12661 35422 12515 C 35661 12436 35814 12420 36353 12420 L 36750 12420 L 36750 12982 L 36750 13543 L 36428 13536 C 36125 13530 35935 13537 35883 13557 C 35866 13564 35985 13640 36545 13980 L 37227 14395 L 37206 14440 C 37003 14876 36620 15180 36161 15271 C 36068 15289 35831 15303 35760 15294 z M 36021 14137 C 36078 14110 36126 14073 36117 14064 C 36114 14061 35998 13990 35859 13905 C 35572 13731 35585 13734 35585 13855 C 35585 14086 35816 14235 36021 14137 z" strokeLinecap="round" />
</g>
		<g transform="matrix(0.13 0 0 -0.13 853.62 110.87)"  >
<path style="stroke: none; strokeWidth: 1; stroke-dasharray: none; strokeLinecap: butt; stroke-dashoffset: 0; strokeLinejoin: miter; stroke-miterlimit: 4; fill: rgb(0,128,128); fill-rule: nonzero; opacity: 1;" vector-effect="non-scaling-stroke"  transform=" translate(-38857.94, -13858.75)" d="M 38695 15294 C 38401 15250 38170 15152 37956 14980 C 37696 14770 37522 14482 37449 14140 C 37417 13991 37417 13730 37448 13583 C 37586 12937 38124 12468 38776 12424 C 38918 12415 38982 12427 39148 12497 C 39156 12501 39160 12490 39160 12461 L 39160 12420 L 39726 12420 L 40291 12420 L 40287 13228 C 40283 14121 40284 14094 40215 14309 C 40144 14528 40034 14706 39860 14880 C 39661 15080 39416 15213 39130 15275 C 39057 15291 38761 15304 38695 15294 z M 38981 14145 C 39050 14110 39123 14033 39145 13972 C 39165 13917 39176 13699 39160 13670 C 39147 13646 39069 13599 38995 13570 C 38912 13538 38795 13537 38725 13569 C 38571 13638 38502 13820 38571 13978 C 38645 14150 38825 14223 38981 14145 z" strokeLinecap="round" />
</g>
		<g transform="matrix(0.13 0 0 -0.13 -1055.89 -4.95)"  >
<path style="stroke: none; strokeWidth: 1; stroke-dasharray: none; strokeLinecap: butt; stroke-dashoffset: 0; strokeLinejoin: miter; stroke-miterlimit: 4; fill: rgb(255,255,255); fill-rule: nonzero; opacity: 1;" vector-effect="non-scaling-stroke"  transform=" translate(-24537.8, -14705)" d="M 23060 14705 L 23060 12370 L 23245 12370 L 23430 12370 L 23430 13485 L 23430 14600 L 23993 14600 C 24587 14600 24692 14606 24914 14651 C 25122 14693 25345 14782 25503 14887 C 25586 14942 25724 15071 25785 15150 C 26086 15544 26093 16125 25802 16516 C 25578 16817 25230 16989 24765 17029 C 24695 17035 24313 17040 23853 17040 L 23060 17040 L 23060 14705 z M 24822 16912 C 25192 16822 25448 16579 25575 16197 C 25661 15937 25663 15631 25581 15393 C 25470 15070 25195 14841 24811 14751 C 24617 14705 24537 14700 23968 14700 L 23430 14700 L 23430 15821 L 23430 16941 L 24083 16937 C 24704 16933 24739 16932 24822 16912 z" strokeLinecap="round" />
</g>
		<g transform="matrix(0.13 0 0 -0.13 -637.78 60.63)"  >
<path style="stroke: none; strokeWidth: 1; stroke-dasharray: none; strokeLinecap: butt; stroke-dashoffset: 0; strokeLinejoin: miter; stroke-miterlimit: 4; fill: rgb(255,255,255); fill-rule: nonzero; opacity: 1;" vector-effect="non-scaling-stroke"  transform=" translate(-27674.79, -14224.67)" d="M 27500 16090 C 26912 16009 26472 15637 26390 15152 C 26384 15112 26380 15076 26383 15074 C 26386 15071 26487 15101 26608 15140 L 26828 15212 L 26834 15248 C 26837 15269 26840 15300 26840 15318 C 26840 15336 26847 15386 26856 15428 C 26900 15644 27024 15810 27206 15900 C 27402 15996 27700 16004 27931 15920 C 28251 15804 28477 15509 28559 15102 C 28584 14983 28600 14825 28600 14714 L 28600 14631 L 28539 14667 C 28381 14759 28159 14841 27959 14882 C 27806 14913 27493 14915 27360 14887 C 27043 14818 26797 14686 26574 14465 C 26292 14185 26150 13856 26150 13485 C 26150 13145 26269 12856 26498 12639 C 26941 12220 27616 12268 28128 12755 C 28359 12974 28547 13292 28611 13575 C 28624 13630 28625 13600 28630 13215 C 28635 12808 28636 12793 28658 12731 C 28730 12533 28894 12401 29119 12360 C 29209 12344 29221 12353 29168 12393 C 29138 12416 29114 12448 29088 12500 C 29014 12647 29017 12602 29010 13785 C 29004 14834 29004 14846 28981 14970 C 28872 15566 28517 15957 27982 16070 C 27871 16094 27607 16105 27500 16090 z M 27815 14760 C 28019 14741 28257 14671 28476 14566 L 28588 14512 L 28595 14364 C 28611 14044 28588 13828 28514 13603 C 28368 13163 28039 12792 27671 12653 C 27517 12595 27306 12579 27165 12614 C 26876 12687 26652 12923 26570 13245 C 26540 13362 26527 13540 26540 13664 C 26601 14267 27032 14710 27610 14764 C 27682 14770 27708 14770 27815 14760 z" strokeLinecap="round" />
</g>
		<g transform="matrix(0.13 0 0 -0.13 -213.74 59.68)"  >
<path style="stroke: none; strokeWidth: 1; stroke-dasharray: none; strokeLinecap: butt; stroke-dashoffset: 0; strokeLinejoin: miter; stroke-miterlimit: 4; fill: rgb(255,255,255); fill-rule: nonzero; opacity: 1;" vector-effect="non-scaling-stroke"  transform=" translate(-30849.67, -14231.99)" d="M 30694 16089 C 30441 16067 30191 15982 30005 15857 C 29919 15799 29796 15677 29741 15594 C 29637 15439 29594 15281 29603 15086 C 29609 14946 29636 14846 29697 14740 C 29752 14645 29913 14487 30037 14406 C 30160 14326 30389 14214 30600 14132 C 31251 13878 31369 13826 31526 13723 C 31786 13551 31890 13341 31836 13096 C 31808 12971 31752 12872 31651 12771 C 31536 12654 31436 12589 31280 12531 C 31139 12479 31055 12466 30855 12465 C 30677 12465 30659 12467 30565 12493 C 30336 12557 30189 12643 30015 12815 C 29806 13022 29648 13299 29590 13563 C 29580 13607 29573 13620 29558 13620 C 29541 13620 29540 13602 29540 13236 L 29540 12853 L 29620 12776 C 29825 12581 30118 12449 30495 12383 C 30573 12369 30651 12365 30850 12366 C 31088 12366 31114 12368 31231 12393 C 31710 12495 32018 12731 32130 13085 C 32158 13173 32168 13356 32151 13456 C 32113 13670 31973 13860 31735 14019 C 31581 14122 31360 14227 30960 14385 C 30433 14594 30256 14687 30098 14839 C 29961 14969 29907 15086 29907 15255 C 29907 15434 29972 15577 30115 15715 C 30395 15985 30924 16071 31269 15903 C 31374 15852 31492 15734 31543 15630 C 31586 15541 31617 15418 31626 15300 L 31633 15215 L 31859 15146 C 31983 15108 32091 15075 32098 15072 C 32109 15069 32110 15081 32105 15136 C 32063 15540 31778 15875 31360 16014 C 31228 16058 31133 16077 30989 16090 C 30862 16101 30826 16101 30694 16089 z" strokeLinecap="round" />
</g>
</g>
</g>
</svg>